<?xml version="1.0" encoding="UTF-8" standalone="no"?>
<svg
   width="100"
   height="100"
   viewBox="0 0 100 100"
   version="1.1"
   xmlns="http://www.w3.org/2000/svg">
  <!-- We need 12 valid SVG elements with proper paths -->
  
  <!-- Element 0 -->
  <path d="M 10,10 C 20,20 20,10 30,10" fill="none" stroke="none"/>
  
  <!-- Element 1 -->
  <path d="M 10,10 C 20,20 20,10 30,10" fill="none" stroke="none"/>
  
  <!-- Element 2: Left iris -->
  <circle cx="30" cy="35" r="10" fill="#FFFFFF" stroke="black" stroke-width="1"/>
  
  <!-- Element 3 -->
  <path d="M 10,10 C 20,20 20,10 30,10" fill="none" stroke="none"/>
  
  <!-- Element 4 -->
  <path d="M 10,10 C 20,20 20,10 30,10" fill="none" stroke="none"/>
  
  <!-- Element 5 -->
  <path d="M 10,10 C 20,20 20,10 30,10" fill="none" stroke="none"/>
  
  <!-- Element 6: Right iris -->
  <circle cx="70" cy="35" r="10" fill="#FFFFFF" stroke="black" stroke-width="1"/>
  
  <!-- Element 7 -->
  <path d="M 10,10 C 20,20 20,10 30,10" fill="none" stroke="none"/>
  
  <!-- Element 8: Left pupil -->
  <circle cx="32" cy="33" r="4" fill="#000000"/>
  
  <!-- Element 9: Right pupil -->
  <circle cx="72" cy="33" r="4" fill="#000000"/>
  
  <!-- Element 10: Body -->
  <path d="M 20,20 C 10,40 10,70 50,90 C 90,70 90,40 80,20 Z" fill="#1C758A"/>
  
  <!-- Element 11: Mouth -->
  <path d="M 30,60 Q 50,70 70,60" fill="none" stroke="black" stroke-width="2"/>
</svg>
